<?xml version="1.0" encoding="utf-8"?>
<!-- Svg Vector Icons : http://www.onlinewebfonts.com/icon -->
<!DOCTYPE svg PUBLIC "-//W3C//DTD SVG 1.1//EN" "http://www.w3.org/Graphics/SVG/1.1/DTD/svg11.dtd">
<svg version="1.1" xmlns="http://www.w3.org/2000/svg" xmlns:xlink="http://www.w3.org/1999/xlink" x="0px" y="0px" viewBox="0 0 1000 1000" enable-background="new 0 0 1000 1000" xml:space="preserve">
<metadata> Svg Vector Icons : http://www.onlinewebfonts.com/icon </metadata>
<g><g><path d="M710.1,402.6c0-4.9-0.1-9.8-0.3-14.7c21.2-15.8,39.5-35.5,54-58.1c-19.4,8.7-40.3,14.6-62.2,17c22.4-13.8,39.5-35.8,47.6-62.2c-20.9,12.7-44.1,21.8-68.7,26.5c-19.7-22.5-47.9-36.8-79-37.3c-59.8-1-108.2,49.5-108.2,112.8c0,9,0.9,17.7,2.8,26.1c-90-5.8-169.8-52.7-223.2-123.3c-9.3,16.9-14.7,36.7-14.7,57.9c0,40.1,19.1,75.7,48.2,96.8c-17.8-0.8-34.4-6.2-49-15c0,0.5,0,1,0,1.5c0,56,37.3,103,86.9,113.9c-9.1,2.6-18.7,3.9-28.5,3.9c-7,0-13.8-0.8-20.4-2.2c13.8,45.9,53.8,79.5,101.1,80.6c-37.1,30.7-83.7,49.1-134.4,49c-8.7,0-17.4-0.6-25.8-1.6c47.9,32.9,104.8,52,166,52C601.3,726.2,710.1,552.9,710.1,402.6z"/><path d="M990,500c0-270.6-219.4-490-490-490C229.4,10,10,229.4,10,500c0,270.6,219.4,490,490,490C770.6,990,990,770.6,990,500z M54.5,500C54.5,254,254,54.5,500,54.5S945.5,254,945.5,500S746,945.5,500,945.5S54.5,746,54.5,500z"/></g><g></g><g></g><g></g><g></g><g></g><g></g><g></g><g></g><g></g><g></g><g></g><g></g><g></g><g></g><g></g></g>
</svg>